<svg xmlns="http://www.w3.org/2000/svg" xmlns:xlink="http://www.w3.org/1999/xlink" version="1.0" id="Capa_1" x="0px" y="0px" viewBox="0 0 841.9 595.3" style="enable-background:new 0 0 841.9 595.3;" xml:space="preserve">
<style type="text/css">
	.st0{fill:#cf7306;}
	.st1{fill:#ffffff;}
	.st2{fill:#ffffff;}
	.st3{fill:#cf7306;}
</style>
<path class="st0" d="M214.7,299.2c-0.2-1.8-0.5-3.5-0.6-5.3c-0.1-0.8-0.4-1.1-1.1-1.2c-6.6-1.3-13.1-2.6-19.7-3.8  c-0.9-0.2-1.3-0.5-1.5-1.4c-1.4-4.8-3.4-9.3-6-13.6c-0.5-0.8-0.5-1.4,0.1-2.1c4-5.3,8-10.6,12-16c0.1-0.1,0.2-0.3,0.3-0.5  c-3.3-4.3-7-8.3-11.1-11.9c-1.1-1-2.3-1.8-3.3-2.8c-0.7-0.7-1.2-0.6-2-0.1c-5.6,3.8-11.2,7.4-16.7,11.2c-0.8,0.5-1.3,0.6-2.2,0.1  c-4.1-2.4-8.5-4.3-13.1-5.5c-0.9-0.2-1.3-0.6-1.4-1.5c-0.9-6.4-1.9-12.8-2.7-19.2c-0.2-1.2-0.6-1.5-1.7-1.5  c-1.7-0.1-3.4-0.4-5.1-0.6c-3.3,0-6.5-0.1-9.8-0.1c-1.7,0.2-3.5,0.5-5.4,0.7c-0.7,3.4-1.4,6.9-2.1,10.5c-0.7,3.4-1.3,6.8-2.1,10.2  c-0.1,0.4-0.6,1-1,1.1c-5.2,1.3-10.2,3.3-14.9,5.8c-0.4,0.2-1.2,0-1.6-0.3c-5.2-3.8-10.3-7.6-15.5-11.5c-0.4-0.3-0.8-0.6-1.2-0.9  c-5.7,4.2-10.8,9.1-15.4,14.7c0.8,1.3,1.7,2.5,2.5,3.8c3,4.5,5.9,8.9,8.9,13.3c0.6,0.9,0.6,1.5,0,2.4c-2.9,4.6-5.1,9.5-6.5,14.7  c-0.3,1.2-1,1.6-2.1,1.8c-6.3,0.9-12.6,1.8-19,2.7c-1,0.1-1.2,0.5-1.3,1.5c-0.1,1.7-0.4,3.4-0.6,5.1c-0.1,3.4-0.1,6.9-0.2,10.3  c0.1,0.8,0.3,1.7,0.3,2.5c-0.1,1.3,0.4,1.8,1.7,2c6.3,1.1,12.5,2.4,18.8,3.6c1,0.2,1.4,0.6,1.7,1.6c1.3,5.9,3.5,11.5,6.6,16.7  c0.5,0.8,0.4,1.3-0.2,2c-3.8,5-7.6,10.1-11.4,15.2c-0.3,0.4-0.6,0.9-1,1.3c4.2,5.5,9,10.3,14.4,14.7c0.4-0.2,0.8-0.5,1.2-0.8  c5.4-3.6,10.8-7.2,16.2-10.8c0.8-0.5,1.3-0.6,2.2-0.1c5.3,3.4,11.1,5.6,17.2,7.1c0.7,0.2,0.9,0.5,1,1.2c0.9,6.7,1.9,13.4,2.9,20.2  c0,0.1,0.1,0.3,0.1,0.5c1.8,0.1,3.7,0.4,5.5,0.4c4.7,0,9.3-0.2,14-0.3c0.8,0,1.1-0.4,1.2-1.1c1.3-6.5,2.6-12.9,3.9-19.4  c0.2-1.1,0.6-1.7,1.8-2.1c5.6-1.5,10.9-3.8,15.8-7c0.9-0.6,1.4-0.5,2.2,0.1c5,3.8,10.1,7.6,15.1,11.4c0.4,0.3,0.8,0.6,1.2,0.9  c5.5-4.4,10.3-9.4,14.5-15c-3.2-4.8-6.5-9.7-9.8-14.5c-0.9-1.3-2.3-2.6-2.5-4c-0.1-1.3,1.3-2.7,1.8-4.1c1.5-4.2,3-8.4,4.3-12.7  c0.2-0.7,0.5-1,1.2-1.1c6.7-0.9,13.3-1.9,20-2.9c0.2,0,0.3-0.1,0.6-0.1C215.1,309.2,215.2,304.2,214.7,299.2z M133.2,354.5  c-27.9-0.2-50.1-22.6-50-50.4c0.1-27.6,22.7-50.5,49.5-50.4c28.6,0.1,51.3,22.8,51.1,51.2C183.6,332.3,160.8,354.7,133.2,354.5z" fill="#ffffff"/>
<path class="st0" d="M170.3,314.5c5.3-20.8-7.3-41.7-28.3-47c-19.8-5-40.5,7.8-45.7,28.1c-5.2,20.5,7.1,41,27.7,46.2  C144.3,347,165.2,334.6,170.3,314.5z M108.5,322.2c-3.3-0.9-5.3-4.3-4.4-7.6c0.9-3.3,4.3-5.3,7.6-4.4c3.3,0.9,5.3,4.3,4.4,7.6  C115.2,321.1,111.8,323.1,108.5,322.2z M138.8,284.8c-3.3-0.9-5.3-4.3-4.4-7.6c0.9-3.3,4.3-5.3,7.6-4.4c3.3,0.9,5.3,4.3,4.4,7.6  C145.6,283.8,142.1,285.7,138.8,284.8z M147.3,332.7c-3.3-0.9-5.3-4.3-4.4-7.6c0.9-3.3,4.3-5.3,7.6-4.4s5.3,4.3,4.4,7.6  C154.1,331.7,150.7,333.6,147.3,332.7z" fill="#ffffff"/>
<path class="st0" d="M283.9,191.9c-0.4-1.1-1-2.1-1.4-3.1c-0.2-0.5-0.4-0.6-0.9-0.6c-4.3,0.5-8.6,1-12.9,1.5  c-0.6,0.1-0.9-0.1-1.2-0.6c-1.8-2.7-3.9-5.1-6.4-7.2c-0.5-0.4-0.6-0.8-0.3-1.3c1.5-4.1,2.9-8.1,4.3-12.2c0-0.1,0.1-0.2,0.1-0.4  c-2.9-2-5.9-3.7-9.2-5.2c-0.9-0.4-1.8-0.7-2.6-1.1c-0.6-0.3-0.9-0.2-1.2,0.3c-2.7,3.4-5.4,6.8-8.1,10.2c-0.4,0.5-0.7,0.6-1.3,0.5  c-3-0.7-6.1-1-9.1-0.8c-0.6,0-0.9-0.1-1.2-0.7c-1.8-3.8-3.6-7.5-5.4-11.3c-0.3-0.7-0.7-0.8-1.3-0.6c-1.1,0.3-2.2,0.4-3.3,0.6  c-2,0.6-4,1.2-6.1,1.8c-1,0.5-2,1-3.2,1.5c0.2,2.2,0.5,4.6,0.7,6.9c0.2,2.2,0.5,4.5,0.7,6.7c0,0.3-0.2,0.8-0.4,0.9  c-3,1.8-5.6,4-8,6.5c-0.2,0.2-0.7,0.2-1.1,0.1c-3.9-1.3-7.9-2.7-11.8-4.1c-0.3-0.1-0.6-0.2-0.9-0.3c-2.7,3.7-4.9,7.7-6.6,12.1  c0.8,0.6,1.5,1.2,2.3,1.9c2.7,2.2,5.4,4.4,8.1,6.5c0.6,0.4,0.6,0.8,0.5,1.5c-0.9,3.4-1.3,6.8-1.1,10.3c0,0.8-0.3,1.2-1,1.5  c-3.7,1.8-7.4,3.6-11.2,5.3c-0.6,0.3-0.7,0.6-0.5,1.2c0.2,1.1,0.4,2.2,0.6,3.3c0.6,2.1,1.3,4.3,1.9,6.4c0.2,0.5,0.5,1,0.6,1.5  c0.2,0.8,0.6,1,1.4,0.9c4.1-0.5,8.2-1,12.3-1.5c0.6-0.1,1,0.1,1.3,0.6c1.9,3.4,4.4,6.4,7.3,9c0.5,0.4,0.5,0.7,0.3,1.3  c-1.4,3.9-2.7,7.7-4.1,11.6c-0.1,0.3-0.2,0.7-0.3,1c3.7,2.6,7.5,4.6,11.7,6.2c0.2-0.2,0.4-0.5,0.6-0.7c2.6-3.3,5.3-6.5,7.9-9.8  c0.4-0.5,0.7-0.6,1.3-0.5c3.9,1,8,1.3,12,1c0.5,0,0.7,0.1,0.9,0.5c1.9,4,3.8,7.9,5.7,11.9c0,0.1,0.1,0.1,0.2,0.3  c1.1-0.3,2.3-0.5,3.5-0.9c2.9-0.9,5.7-2,8.6-2.9c0.5-0.2,0.6-0.4,0.6-0.9c-0.5-4.2-0.9-8.5-1.4-12.7c-0.1-0.7,0-1.2,0.7-1.6  c3.2-2,6-4.5,8.4-7.4c0.4-0.5,0.8-0.6,1.4-0.4c3.8,1.4,7.7,2.7,11.5,4.1c0.3,0.1,0.6,0.2,0.9,0.3c2.5-3.8,4.5-7.8,6-12.1  c-2.9-2.4-5.9-4.7-8.9-7.1c-0.8-0.6-1.9-1.1-2.3-2c-0.3-0.8,0.3-1.9,0.3-2.9c0.1-2.9,0.2-5.8,0.2-8.7c0-0.5,0.1-0.7,0.5-0.9  c3.9-1.9,7.9-3.8,11.8-5.7c0.1,0,0.2-0.1,0.3-0.2C286.1,198,285.2,194.9,283.9,191.9z M244.5,241.9c-17.2,5.3-35.3-4.1-40.7-21.3  c-5.3-17,4.1-35.6,20.7-40.7c17.7-5.5,36.1,4.1,41.5,21.6C271.2,218.4,261.5,236.7,244.5,241.9z" fill="#ffffff"/>
<path class="st0" d="M250.2,191.9c-11-8.5-26.6-6.5-35.2,4.6c-8.1,10.4-5.9,26.1,4.8,34.4c10.8,8.4,26.2,6.4,34.6-4.4  C262.7,215.7,260.8,200.1,250.2,191.9z M238.7,230.5c-1.4,1.7-3.9,2-5.7,0.6c-1.7-1.4-2-3.9-0.6-5.7c1.4-1.7,3.9-2,5.7-0.6  C239.8,226.2,240.1,228.8,238.7,230.5z M224.5,202.8c-1.4,1.7-3.9,2-5.7,0.6c-1.7-1.4-2-3.9-0.6-5.7c1.4-1.7,3.9-2,5.7-0.6  C225.6,198.6,225.9,201.1,224.5,202.8z M255.1,210.2c-1.4,1.7-3.9,2-5.7,0.6c-1.7-1.4-2-3.9-0.6-5.7c1.4-1.7,3.9-2,5.7-0.6  S256.5,208.5,255.1,210.2z" fill="#ffffff"/>
<path class="st1" d="M351.1,342.8c0-6.3,0.7-12.9,1.8-20.3l10.7-80.7h-43.1c1.8-13.6,3.7-26.5,5.9-39.8h43.1  c2.2-13.6,4.4-28.4,6.3-42h71.8l-5.9,42h44.2c-1.8,13.6-4.1,26.5-5.9,39.8h-43.8c-3.7,25.8-7.7,56.4-11.4,82.9  c-0.4,2.6-0.4,4.8-0.4,6.6c0,15.8,10.3,18.8,30.9,18.8c4.4,0,9.6-0.4,14.7-0.4c-1.5,12.2-3,23.6-4.4,35.7c-18.4,3.3-31,4.1-39.1,4.1  C366.9,389.6,351.1,373,351.1,342.8z" fill="#ffffff"/>
<path class="st1" d="M487,386.3L462,202.1h75.2l13.6,143.3l53.4-143.3H679l-75.2,184.2H487z" fill="#ffffff"/>
<path d="M57.9,435.7v-19.2h-6.5v-3.8h18.9v3.8h-6.5v19.2H57.9z" fill="#ffffff"/>
<path d="M80.2,435.7v-23h10c4.7,0,8.4,1.2,8.4,5.9v2.6c0,1.8-0.8,3.2-2.3,4.5l1.8,10h-5.9l-1.5-8.4c-0.4,0-1,0-4.7,0v8.4H80.2z   M86,423.6h4c1.5,0,2.9-0.3,2.9-2.3v-2.6c0-2.1-1.4-2.4-2.9-2.4h-4V423.6z" fill="#ffffff"/>
<path d="M107.1,435.7l6.8-23h8.2l6.9,23h-5.5l-1.6-5.8h-7.7l-1.6,5.8H107.1z M115.3,425.9h5.4l-2.8-9.4L115.3,425.9z" fill="#ffffff"/>
<path d="M152.8,435.7l-8.7-16.1v16.1H139v-23h7.1l7.7,14.8l-0.1-14.8h5.7v23H152.8z" fill="#ffffff"/>
<path d="M186.7,429.7c0,4.4-3.2,6.4-7.4,6.4c-3,0-5.2-0.2-8.3-0.3V432c0,0,5.1,0.2,8.1,0.2c1.3,0,1.9-0.7,1.9-2.2  c0.1-3.7-11.3-4.6-11.3-11.3c0-4.5,3.1-6.4,7.5-6.4c4.4,0,6.3,0.2,8.3,0.3v3.7c0,0-5.4-0.2-8.1-0.2c-1.2,0-2,0.6-2,1.9  C175.4,420.8,186.7,422.4,186.7,429.7z" fill="#ffffff"/>
<path d="M197.3,435.7v-23h7.6l5.4,12l5.4-12h8v23h-5.7v-16.3l-5.7,12.9h-4.2l-5.4-12.8v16.2H197.3z" fill="#ffffff"/>
<path d="M241.2,435.7h-5.8v-23h5.8V435.7z" fill="#ffffff"/>
<path d="M268.5,429.7c0,4.4-3.2,6.4-7.4,6.4c-3,0-5.2-0.2-8.3-0.3V432c0,0,5.1,0.2,8.1,0.2c1.3,0,1.9-0.7,1.9-2.2  c0.1-3.7-11.3-4.6-11.3-11.3c0-4.5,3.1-6.4,7.5-6.4c4.4,0,6.3,0.2,8.3,0.3v3.7c0,0-5.4-0.2-8.1-0.2c-1.2,0-2,0.6-2,1.9  C257.2,420.8,268.5,422.4,268.5,429.7z" fill="#ffffff"/>
<path d="M284.9,435.7h-5.8v-23h5.8V435.7z" fill="#ffffff"/>
<path d="M295.9,424.3c0-9.6,1.2-11.9,9.3-11.9c8.3,0,9.3,2.3,9.3,11.9c0,9.6-1.1,11.8-9.3,11.8C296.9,436.1,295.9,433.6,295.9,424.3  z M308.8,424.3c0-7-0.3-8.3-3.7-8.3c-3.4,0-3.6,1.4-3.6,8.3c0,6.7,0.2,8.2,3.6,8.2C308.5,432.5,308.8,431.3,308.8,424.3z" fill="#ffffff"/>
<path d="M339.5,435.7l-8.7-16.1v16.1h-5.2v-23h7.1l7.7,14.8l-0.1-14.8h5.7v23H339.5z" fill="#ffffff"/>
<path d="M357.5,435.7v-23h15.8v3.9h-10.1v5.5h9.2v3.9h-9.2v5.9h10.1v3.8H357.5z" fill="#ffffff"/>
<path d="M399.8,429.7c0,4.4-3.2,6.4-7.4,6.4c-3,0-5.2-0.2-8.3-0.3V432c0,0,5.1,0.2,8.1,0.2c1.3,0,1.9-0.7,1.9-2.2  c0.1-3.7-11.3-4.6-11.3-11.3c0-4.5,3.1-6.4,7.5-6.4c4.4,0,6.3,0.2,8.3,0.3v3.7c0,0-5.4-0.2-8.1-0.2c-1.2,0-2,0.6-2,1.9  C388.5,420.8,399.8,422.4,399.8,429.7z" fill="#ffffff"/>
<path class="st0" d="M427,412.7l5.1,19.1l5.3-19.1h5.5l-6.7,23h-8.3l-6.5-23H427z" fill="#ffffff"/>
<path class="st0" d="M458.5,435.7h-5.8v-23h5.8V435.7z" fill="#ffffff"/>
<path class="st0" d="M474.5,435.7v-19.2H468v-3.8h18.9v3.8h-6.5v19.2H474.5z" fill="#ffffff"/>
<path class="st0" d="M492.1,435.7l6.8-23h8.2l6.9,23h-5.5l-1.6-5.8h-7.7l-1.6,5.8H492.1z M500.3,425.9h5.4l-2.8-9.4L500.3,425.9z" fill="#ffffff"/>
<path class="st0" d="M524,435.7v-23h5.7v19.2h9.6v3.8H524z" fill="#ffffff"/>
<path class="st0" d="M555.1,435.7h-5.8v-23h5.8V435.7z" fill="#ffffff"/>
<path class="st0" d="M571.3,435.7v-6.8l-7.3-16.2h5.8l4.5,10.4l4.4-10.4h5.9l-7.5,16.2v6.8H571.3z" fill="#ffffff"/>
<path class="st0" d="M623.4,429.7c0,4.4-3.2,6.4-7.4,6.4c-3,0-5.2-0.2-8.3-0.3V432c0,0,5.1,0.2,8.1,0.2c1.3,0,1.9-0.7,1.9-2.2  c0.1-3.7-11.3-4.6-11.3-11.3c0-4.5,3.1-6.4,7.5-6.4c4.4,0,6.3,0.2,8.3,0.3v3.7c0,0-5.4-0.2-8.1-0.2c-1.2,0-2,0.6-2,1.9  C612.1,420.8,623.4,422.4,623.4,429.7z" fill="#ffffff"/>
<path class="st0" d="M631.5,435.7l6.8-23h8.2l6.9,23h-5.5l-1.6-5.8h-7.7l-1.6,5.8H631.5z M639.7,425.9h5.4l-2.8-9.4L639.7,425.9z" fill="#ffffff"/>
<path class="st0" d="M676,435.7v-9.9h-6.8v9.9h-5.8v-23h5.8v9.4h6.8v-9.4h5.8v23H676z" fill="#ffffff"/>
<path class="st0" d="M693.5,435.7v-23h5.7v19.2h9.6v3.8H693.5z" fill="#ffffff"/>
<path class="st0" d="M720.6,435.7v-6.8l-7.3-16.2h5.8l4.5,10.4l4.4-10.4h5.9l-7.5,16.2v6.8H720.6z" fill="#ffffff"/>
<path class="st0" d="M739,435.7l6.8-23h8.2l6.9,23h-5.5l-1.6-5.8h-7.7l-1.6,5.8H739z M747.2,425.9h5.4l-2.8-9.4L747.2,425.9z" fill="#ffffff"/>
<path class="st0" d="M784.8,435.7l-8.7-16.1v16.1h-5.2v-23h7.1l7.7,14.8l-0.1-14.8h5.7v23H784.8z" fill="#ffffff"/>
<path class="st0" d="M710.5,240.7c18.8,0.4,47.2,1.1,75.9,2.9l4.8-37.5c0,0-44.9-5.1-85.8-5.1c-4.1,0-8.2,0.2-12.1,0.5L651,305  c26.5,15.5,60,22.6,58.4,33.2c-1.1,7.6-9.2,9.1-18.1,9.1c-18.8,0-41.8-1.1-56.9-1.9l-15.3,37.5c13.4,1.4,47.8,4.5,79.5,4.5  c44.2,0,80.7-16.7,85.5-53.2c7.4-54.3-78.8-69.2-87.3-82.7C692.1,243.2,701.3,240.3,710.5,240.7z" fill="#ffffff"/>
<path class="st2" d="M604.2,202.1L558,326c6.7,1.3,13.4,2.4,20.3,3.4c15.9,2.3,31.5,3.8,47,4.4L679,202.1H604.2z" fill="#ffffff"/>
<path class="st2" d="M537.1,202.1h-51.2H462h-20.3l5.9-42h-71.8c-1.8,13.6-4.1,28.4-6.3,42h-31.7c21.9,30,53.8,57.1,93,78.8  c1.8-13.5,3.7-26.8,5.4-39h31.2l8.2,60.3c22.8,9.1,47.4,16.6,73.2,22L537.1,202.1z" fill="#ffffff"/>
<path class="st3" d="M696.9,251.6c-4.8-8.4,4.4-11.3,13.6-10.9c18.8,0.4,47.2,1.1,75.9,2.9l4.8-37.5c0,0-44.9-5.1-85.8-5.1  c-4.1,0-8.2,0.2-12.1,0.5L651,305.1c19.4,11.4,42.5,18.2,52.9,25.2c27.7-3.9,53.7-10.5,77.2-19.5C765.5,275.2,704,262.9,696.9,251.6  z" fill="#ffffff"/>
</svg>